<svg width="140" height="65" viewBox="0 0 140 65" fill="none" xmlns="http://www.w3.org/2000/svg">
<g>
<path d="M21.9169 12.4048C21.1238 10.756 19.9942 9.44573 18.5365 8.4719C17.0745 7.50225 15.3391 7.01534 13.324 7.01534C11.8767 7.01534 10.5284 7.30163 9.28098 7.8805C8.03149 8.45727 7.01128 9.32661 6.21825 10.4802V0H0.816406V28.4856H6.26243V25.61C7.08491 26.7657 8.11143 27.6183 9.3483 28.1658C10.581 28.7175 11.9062 28.9892 13.324 28.9892C15.337 28.9892 17.0745 28.4877 18.5365 27.4887C19.9942 26.4898 21.1238 25.144 21.9169 23.4513C22.7099 21.7628 23.1074 19.9175 23.1074 17.9176C23.1074 15.9177 22.7099 14.0495 21.9169 12.4027V12.4048ZM16.8537 21.1087C16.372 22.0825 15.7051 22.8516 14.8553 23.4137C14.0034 23.9759 13.0105 24.2601 11.8767 24.2601C10.8271 24.2601 9.87839 23.9988 9.02646 23.4764C8.17453 22.9581 7.5014 22.2246 7.00497 21.2801C6.51064 20.3355 6.26243 19.2467 6.26243 18.0054C6.26243 16.7641 6.50433 15.7171 6.98604 14.7746C7.46564 13.8301 8.12615 13.0903 8.96335 12.5532C9.80055 12.0203 10.7682 11.7507 11.8767 11.7507C12.8969 11.7507 13.8393 11.9911 14.706 12.4696C15.5726 12.9482 16.2668 13.6462 16.7885 14.5615C17.3143 15.481 17.5773 16.599 17.5773 17.9239C17.5773 19.0795 17.3354 20.1432 16.8537 21.1129V21.1087Z" fill="white"/>
<path d="M36.3384 28.9912C34.1255 28.9912 32.2176 28.5106 30.6169 27.5535C29.014 26.5964 27.7729 25.2861 26.8936 23.6226C26.0143 21.9613 25.5747 20.0867 25.5747 18.0012C25.5747 15.7756 26.0291 13.8446 26.9357 12.2104C27.8444 10.5762 29.1065 9.30147 30.722 8.38616C32.3396 7.47084 34.2118 7.01318 36.3384 7.01318C38.4651 7.01318 40.2741 7.46457 41.8476 8.36526C43.421 9.26804 44.6558 10.5073 45.5477 12.085C46.4417 13.6628 46.8876 15.4809 46.8876 17.5372C46.8876 17.9029 46.8729 18.2624 46.8455 18.6155C46.8161 18.9687 46.774 19.2989 46.7172 19.6082H31.0607C31.1448 20.5946 31.4078 21.4618 31.8474 22.2079C32.287 22.9539 32.8823 23.5328 33.6333 23.9403C34.3843 24.3499 35.2425 24.5526 36.2059 24.5526C37.1693 24.5526 38.057 24.3415 38.7806 23.9194C39.5042 23.4972 40.0785 22.8494 40.5034 21.9759H46.3323C45.9347 23.2151 45.2973 24.3708 44.4181 25.4407C43.5388 26.5128 42.4239 27.3717 41.0777 28.0195C39.7314 28.6673 38.1496 28.9912 36.3342 28.9912H36.3384ZM31.1049 16.0159H41.2733C41.2439 14.6074 40.7264 13.4956 39.7209 12.6764C38.7133 11.8593 37.529 11.4518 36.1681 11.4518C35.0048 11.4518 33.9278 11.8113 32.9349 12.5302C31.9421 13.249 31.332 14.4109 31.1049 16.018V16.0159Z" fill="white"/>
<path d="M63.9054 7.521L58.3352 21.8087L52.8892 7.521H46.8037L55.3566 27.5138L51.5198 36.0066H57.2372L69.6543 7.521H63.9096H63.9054Z" fill="white"/>
<path d="M80.3273 28.9912C78.2006 28.9912 76.3074 28.5336 74.6477 27.6183C72.9881 26.7029 71.6902 25.4135 70.7562 23.7501C69.8202 22.0887 69.3511 20.1724 69.3511 18.0012C69.3511 15.7191 69.8538 13.7527 70.8614 12.1059C71.8669 10.4571 73.2152 9.19699 74.9023 8.32347C76.5893 7.44994 78.4551 7.01318 80.4976 7.01318C82.5402 7.01318 84.5238 7.47084 86.1982 8.38616C87.8705 9.30147 89.1978 10.5783 90.176 12.2104C91.1541 13.8446 91.6442 15.7756 91.6442 18.0012C91.6442 20.2268 91.1625 22.0031 90.197 23.6644C89.2315 25.3279 87.9063 26.6298 86.2192 27.5744C84.5322 28.5189 82.5675 28.9912 80.3273 28.9912ZM80.4114 24.2997C81.5452 24.2997 82.5317 24.0113 83.369 23.4325C84.2062 22.8557 84.8646 22.0804 85.3463 21.1086C85.828 20.1369 86.0699 19.0732 86.0699 17.9176C86.0699 16.5927 85.8069 15.4663 85.2832 14.5363C84.7573 13.6064 84.0715 12.9021 83.2196 12.4236C82.3677 11.945 81.4337 11.7047 80.4114 11.7047C79.3049 11.7047 78.3331 11.9722 77.498 12.5072C76.6608 13.0422 76.0087 13.7819 75.5417 14.7265C75.0748 15.6711 74.8392 16.7619 74.8392 18.0012C74.8392 19.2404 75.0874 20.3396 75.5838 21.2967C76.0802 22.2559 76.7534 22.9936 77.6053 23.516C78.4572 24.0385 79.3912 24.2976 80.4135 24.2976L80.4114 24.2997Z" fill="white"/>
<path d="M94.4805 28.4855V7.521H99.8844V9.97229C100.623 8.98592 101.607 8.24614 102.842 7.75296C104.075 7.25978 105.316 7.01318 106.565 7.01318C109.003 7.01318 111.004 7.79475 112.564 9.3579C114.123 10.921 114.904 13.1822 114.904 16.1413V28.4834H109.5V16.8601C109.5 15.2824 109.096 14.0076 108.288 13.0359C107.48 12.0641 106.296 11.5772 104.735 11.5772C103.174 11.5772 101.975 12.0641 101.14 13.0359C100.303 14.0076 99.8844 15.2824 99.8844 16.8601V28.4834H94.4805V28.4855Z" fill="white"/>
<path d="M134.514 0V10.313C133.662 9.24093 132.621 8.42384 131.386 7.86169C130.153 7.29536 128.858 7.01534 127.492 7.01534C125.507 7.01534 123.78 7.50225 122.303 8.4719C120.831 9.44573 119.693 10.756 118.9 12.4048C118.107 14.0537 117.709 15.8906 117.709 17.9197C117.709 19.9489 118.1 21.8004 118.879 23.4764C119.661 25.1545 120.78 26.494 122.242 27.4929C123.7 28.4918 125.454 28.9934 127.495 28.9934C128.912 28.9934 130.261 28.6987 131.538 28.1073C132.812 27.5159 133.807 26.6403 134.516 25.4847V28.4877H140.002V0H134.516H134.514ZM133.835 21.2341C133.353 22.1787 132.69 22.9184 131.853 23.4534C131.016 23.9905 130.034 24.2601 128.896 24.2601C127.758 24.2601 126.813 23.9759 125.961 23.4137C125.109 22.8516 124.444 22.0888 123.963 21.1296C123.481 20.1746 123.239 19.1025 123.239 17.9197C123.239 16.7369 123.481 15.644 123.963 14.7287C124.444 13.8133 125.103 13.0882 125.94 12.549C126.777 12.0161 127.749 11.7466 128.858 11.7466C129.705 11.7466 130.572 11.9618 131.453 12.3818C132.331 12.804 133.069 13.4748 133.664 14.3901C134.26 15.3054 134.556 16.5112 134.556 18.0033C134.556 19.2154 134.314 20.2937 133.837 21.2341H133.835Z" fill="white"/>
<path d="M10.5933 65.0002C8.46668 65.0002 6.60927 64.5279 5.02111 63.5833C3.43295 62.6387 2.19818 61.3431 1.31891 59.6942C0.439636 58.0454 0 56.1521 0 54.0101C0 51.8681 0.431222 50.0103 1.29787 48.3468C2.16242 46.6855 3.38878 45.3815 4.97694 44.4369C6.5651 43.4923 8.43723 43.02 10.5933 43.02C13.147 43.02 15.3094 43.6532 17.0806 44.9217C18.8518 46.1902 20.0508 48.0647 20.6755 50.5432H14.8467C14.5921 49.7261 14.102 49.0281 13.3784 48.4513C12.6548 47.8745 11.7124 47.5841 10.5492 47.5841C9.38592 47.5841 8.43513 47.8808 7.6989 48.4722C6.96056 49.0636 6.41575 49.8452 6.06025 50.8169C5.70476 51.7887 5.52806 52.8524 5.52806 54.008C5.52806 55.1636 5.70476 56.2273 6.06025 57.1991C6.41364 58.1708 6.96056 58.9461 7.6989 59.5229C8.43723 60.1017 9.38592 60.3901 10.5492 60.3901C11.7124 60.3901 12.5622 60.1435 13.2711 59.6504C13.98 59.1572 14.5059 58.432 14.8446 57.4728H20.6734C20.3053 59.0506 19.6448 60.4027 18.6961 61.5311C17.7453 62.6575 16.5821 63.5164 15.2064 64.1099C13.8307 64.7013 12.293 64.9981 10.5912 64.9981L10.5933 65.0002Z" fill="white"/>
<path d="M34.1193 65C31.9926 65 30.0994 64.5424 28.4397 63.627C26.7801 62.7117 25.4822 61.4223 24.5482 59.7589C23.6122 58.0975 23.1431 56.1812 23.1431 54.01C23.1431 51.7279 23.6458 49.7615 24.6534 48.1147C25.6589 46.4659 27.0072 45.2058 28.6943 44.3323C30.3813 43.4587 32.2471 43.022 34.2896 43.022C36.3322 43.022 38.3158 43.4796 39.9902 44.3949C41.6625 45.3103 42.9898 46.5871 43.968 48.2192C44.9461 49.8534 45.4362 51.7844 45.4362 54.01C45.4362 56.2356 44.9545 58.0118 43.989 59.6732C43.0235 61.3367 41.6982 62.6386 40.0112 63.5832C38.3242 64.5277 36.3595 65 34.1193 65ZM34.2034 60.3085C35.3372 60.3085 36.3237 60.0201 37.1609 59.4412C37.9982 58.8645 38.6566 58.0892 39.1383 57.1174C39.62 56.1457 39.8619 55.082 39.8619 53.9264C39.8619 52.6014 39.5989 51.4751 39.0752 50.5451C38.5493 49.6152 37.8635 48.9109 37.0116 48.4324C36.1597 47.9538 35.2257 47.7135 34.2034 47.7135C33.0969 47.7135 32.1251 47.981 31.29 48.516C30.4528 49.0509 29.8007 49.7907 29.3337 50.7353C28.8668 51.6799 28.6312 52.7707 28.6312 54.01C28.6312 55.2492 28.8794 56.3484 29.3758 57.3055C29.8722 58.2647 30.5454 59.0024 31.3973 59.5248C32.2492 60.0473 33.1832 60.3064 34.2055 60.3064L34.2034 60.3085Z" fill="white"/>
<path d="M49.5883 65.0002C48.5954 65.0002 47.7582 64.6554 47.0788 63.9637C46.3973 63.2741 46.0586 62.4486 46.0586 61.4915C46.0586 60.5344 46.3994 59.6734 47.0788 58.9984C47.7603 58.3213 48.5954 57.9849 49.5883 57.9849C50.5812 57.9849 51.4184 58.3234 52.0978 58.9984C52.7772 59.6734 53.118 60.5051 53.118 61.4915C53.118 62.4779 52.7772 63.2741 52.0978 63.9637C51.4163 64.6533 50.5812 65.0002 49.5883 65.0002Z" fill="white"/>
</g>
</svg>
