<svg width="115" height="66" viewBox="0 0 115 66" fill="none" xmlns="http://www.w3.org/2000/svg">
<g clip-path="url(#clip0_218_436)">
<path d="M84.296 20.5031L80.2376 18.4561C80.2376 18.4561 80.0713 18.7202 79.9715 18.8523C79.2396 20.0078 78.2084 21.0644 76.9775 21.9558L80.1045 23.0453C80.2709 23.1114 80.3374 23.2765 80.2709 23.4415L77.5431 29.1864H80.5037L84.9613 23.1444C85.6267 22.253 85.294 20.9983 84.3293 20.5031H84.296Z" fill="white"/>
<path d="M99.6647 6.83442H94.9409C93.5438 6.83442 91.8805 4.72136 89.6849 4.72136H69.925C66.1327 4.72136 64.037 6.86743 61.8414 6.86743H47.77C46.4393 6.86743 45.2085 7.1976 44.0775 7.75888L39.5866 0.132066C39.5866 0.132066 39.4535 0 39.3204 0H38.888C38.6884 0 38.5221 0.198099 38.6219 0.396198L41.8819 9.14557C39.52 11.0275 37.7237 13.8009 36.5261 16.4092C34.63 20.4702 31.4032 20.9325 27.4778 20.9985C26.7792 20.9985 26.1804 21.3947 25.881 22.022L18.5293 37.7379H21.49L29.6401 27.0735C29.7399 26.9415 29.9395 26.8424 30.1058 26.8424H38.4555C43.0795 26.8424 46.8718 20.3382 48.6349 18.7864C50.398 17.2346 53.3254 17.5318 55.7538 18.7864C57.7497 19.8099 62.041 21.5928 66.2325 22.1871L65.5339 30.3422C65.5339 30.7054 65.5672 31.0355 65.7668 31.3657L69.3262 37.7049H72.2869L70.0913 31.4317C70.0913 31.3657 70.0913 31.2996 70.0913 31.2336L73.3514 21.3617C75.3141 20.4702 77.0106 19.1166 77.9421 17.6308C78.9068 16.079 80.2374 15.0885 82.0338 14.5603C82.4662 14.4282 82.7989 14.065 82.8654 13.6358L83.5973 9.54177L85.7263 14.065L85.7928 14.1971C85.9259 14.4612 86.0922 14.6923 86.3251 14.8574C86.6577 15.1216 87.0569 15.2536 87.4894 15.2536H89.0529C89.4188 15.2536 89.6849 14.9565 89.6849 14.6263V14.032H95.4732C97.0699 14.032 98.5336 13.1076 99.2322 11.6548L100.463 8.02301C100.729 7.46173 100.33 6.83442 99.6979 6.83442H99.6647Z" fill="white"/>
<path d="M47.87 30.7384L56.1199 24.069C56.1199 21.5928 53.9909 20.7344 52.1945 20.7344C50.3982 20.7344 47.2379 22.6823 46.6059 23.97L43.9779 29.5828C43.745 30.045 43.745 30.6063 43.9779 31.0685L47.1049 37.6718H50.0655L47.7702 31.0355C47.7369 30.9035 47.7702 30.8044 47.87 30.7054V30.7384Z" fill="white"/>
<path d="M8.38299 47.1478H0V65.7361H3.35985V59.8261H8.38299C10.5785 59.8261 12.3084 59.2648 13.5725 58.1753C14.8366 57.0857 15.4686 55.534 15.4686 53.4869C15.4686 51.4399 14.8366 49.8551 13.5725 48.7656C12.3084 47.676 10.5785 47.1147 8.41626 47.1147L8.38299 47.1478ZM10.9112 56.1283C10.1793 56.6895 9.11484 56.9537 7.78421 56.9537H3.39312V50.0532H7.78421C9.11484 50.0532 10.1461 50.3173 10.9112 50.8786C11.6763 51.4399 12.0755 52.2983 12.0755 53.4869C12.0755 54.6755 11.6763 55.534 10.9445 56.0952L10.9112 56.1283Z" fill="white"/>
<path d="M31.8687 48.1049C30.405 47.2795 28.7085 46.8833 26.7791 46.8833C24.8496 46.8833 23.1198 47.2795 21.6561 48.1049C20.1924 48.8973 19.0614 50.0529 18.263 51.5056C17.4646 52.9583 17.0654 54.6092 17.0654 56.4251C17.0654 58.307 17.4979 59.9578 18.2963 61.4436C19.0946 62.8963 20.2257 64.0189 21.6894 64.8113C23.1531 65.6037 24.8496 65.9999 26.7458 65.9999C28.7085 65.9999 30.405 65.6037 31.8687 64.7783C33.3324 63.9859 34.4302 62.8303 35.1953 61.3775C35.9604 59.9248 36.3596 58.274 36.3596 56.3921C36.3596 54.5431 35.9604 52.8923 35.162 51.4396C34.3969 50.0199 33.2659 48.8973 31.8355 48.0719L31.8687 48.1049ZM32.2346 59.9578C31.7689 60.9483 31.0703 61.7077 30.1389 62.203C29.2075 62.6982 28.0764 62.9623 26.8123 62.9623C25.5482 62.9623 24.4504 62.6982 23.4857 62.203C22.521 61.7077 21.8224 60.9483 21.3235 59.9578C20.8245 58.9673 20.5583 57.7787 20.5583 56.4251C20.5583 55.0714 20.8577 53.8828 21.3567 52.8923C21.889 51.9018 22.5876 51.1424 23.519 50.6142C24.4504 50.0859 25.5815 49.8218 26.8456 49.8218C28.0764 49.8218 29.1742 50.0859 30.1389 50.6142C31.0703 51.1424 31.8022 51.9018 32.2679 52.8593C32.7669 53.8168 32.9998 55.0054 32.9998 56.3921C32.9998 57.7457 32.7336 58.9013 32.2679 59.9248L32.2346 59.9578Z" fill="white"/>
<path d="M38.3223 47.1147L38.3888 65.703H41.7154L41.6821 47.1147H38.3223Z" fill="white"/>
<path d="M57.949 47.1144V60.5852L48.1356 47.9068C47.8362 47.5766 47.5701 47.3125 47.2707 47.1474C46.9713 46.9824 46.6719 46.8833 46.3725 46.8833C45.8403 46.8833 45.4078 47.0484 45.0752 47.3786C44.7425 47.7087 44.5762 48.204 44.5762 48.8643V65.6697H47.9028V52.6942L57.317 64.7452C57.317 64.7452 57.317 64.8113 57.3835 64.8113C57.6496 65.1744 57.949 65.4386 58.315 65.6367C58.6809 65.8348 59.0135 65.9008 59.3795 65.9008C59.9783 65.9008 60.444 65.7357 60.8099 65.3725C61.1758 65.0094 61.3422 64.5471 61.3089 63.9198V47.1144H57.949Z" fill="white"/>
<path d="M63.5044 47.1146V50.1191L68.9267 50.086V65.6698H72.2866V50.086H77.6756V47.0815L63.5044 47.1146Z" fill="white"/>
<path d="M111.074 65.6366H114.967L110.243 58.274C111.241 58.0098 112.139 57.6136 112.838 57.0193C114.035 55.9958 114.667 54.6091 114.667 52.8262C114.667 51.6376 114.401 50.6141 113.869 49.7557C113.337 48.8973 112.571 48.2369 111.54 47.7417C110.509 47.2464 109.278 47.0483 107.814 47.0483H99.5312V65.6366H102.891V58.5711H106.717L111.108 65.6366H111.074ZM102.858 49.9538H107.615C108.746 49.9538 109.611 50.2179 110.243 50.7132C110.875 51.2414 111.208 51.9678 111.208 52.9583C111.208 53.9158 110.908 54.6421 110.276 55.1044C109.644 55.5666 108.746 55.7977 107.648 55.7977H102.858V49.9538Z" fill="white"/>
<path d="M96.0386 51.4067C95.2735 49.987 94.1424 48.8644 92.712 48.039C91.2483 47.2136 89.5517 46.8174 87.6223 46.8174C85.6929 46.8174 83.9631 47.2136 82.4994 48.039C81.0357 48.8314 79.9046 49.987 79.1063 51.4397C78.3079 52.8924 77.9087 54.5432 77.9087 56.3592C77.9087 58.2411 78.3412 59.8919 79.1395 61.3777C79.9379 62.8634 81.0689 63.953 82.5326 64.7453C83.9963 65.5377 85.6929 65.9339 87.589 65.9339C89.4852 65.9339 91.2483 65.5377 92.712 64.7123C94.1757 63.9199 95.2735 62.7644 96.0386 61.3116C96.1384 61.1465 96.2382 60.9484 96.3047 60.7503H92.5457C92.1132 61.3446 91.581 61.8069 90.9489 62.137C90.0175 62.6323 88.8864 62.8964 87.6223 62.8964C86.3249 62.8964 85.2604 62.6323 84.2957 62.137C83.3643 61.6418 82.6324 60.8824 82.1335 59.8919C81.7343 59.0995 81.4681 58.1751 81.4016 57.1515H97.2029C97.2029 56.8544 97.2029 56.5903 97.2029 56.3261C97.2029 55.5668 97.1363 54.8404 97.0033 54.147C96.8037 53.1566 96.471 52.2321 96.0386 51.3737V51.4067ZM82.1667 52.8924C82.699 51.9019 83.3976 51.1425 84.329 50.6143C85.2604 50.086 86.3582 49.8219 87.6556 49.8219C88.953 49.8219 89.9842 50.086 90.9489 50.6143C91.8803 51.1425 92.6122 51.9019 93.0779 52.8594C93.2775 53.2556 93.4438 53.6848 93.5436 54.147H81.6677C81.8008 53.6848 81.9671 53.2556 82.1667 52.8594V52.8924Z" fill="white"/>
</g>
<defs>
<clipPath id="clip0_218_436">
<rect width="115" height="66" fill="white"/>
</clipPath>
</defs>
</svg>
