<svg width="139" height="72" viewBox="0 0 139 72" fill="none" xmlns="http://www.w3.org/2000/svg">
<g clip-path="url(#clip0_218_424)">
<path d="M42.6045 0H42.6869V0.273973C42.6869 2.65753 42.6869 5.0411 42.7144 7.39726V7.56164C42.7144 8.41096 42.7144 9.23288 42.7144 10.0822C42.7144 10.9315 42.7144 11.8082 42.7144 12.6575V14.1096C42.7144 14.5753 42.7144 15.0137 42.7144 15.4795C42.7144 15.6438 42.7144 15.8082 42.7144 15.9726C42.7144 16.1918 42.7144 16.4384 42.7144 16.6575V16.8493C42.7144 17.0685 42.7419 17.2785 42.7969 17.4795C42.8518 17.6804 43.0076 17.7078 43.2641 17.5616H43.4016C43.4016 17.5616 43.594 17.589 43.7039 17.6164C43.9788 17.6438 44.2537 17.6712 44.5285 17.726H44.6934C48.0743 18.1644 51.3727 19.1781 54.3138 20.9041L54.0939 20.9863C53.9015 20.9315 53.7365 20.8767 53.5441 20.8219L53.2143 20.7123L53.0494 20.6575C51.9224 20.274 50.768 19.9178 49.5861 19.6712L49.3662 19.6164C44.6934 18.6849 39.7458 19.0685 35.1831 20.3288L34.9632 20.3836C30.0156 21.726 25.5078 24.3836 21.8795 27.9726L21.7146 28.137L21.5497 28.3014L21.4122 28.4384C21.4122 28.4384 21.3023 28.5479 21.2198 28.7123H21.0824L21.0274 28.8493C20.945 29.0137 20.8625 29.1233 20.7526 29.2603L20.6426 29.3973L20.5052 29.5342C20.0379 30.0822 19.6256 30.6575 19.2408 31.2877C19.2408 31.3425 19.1858 31.3699 19.1583 31.4247C17.894 33.3973 17.0968 35.589 16.7395 37.9178V38.1644C16.6571 38.4658 16.6571 38.7397 16.6571 39.0411V39.2055C16.6571 39.2055 16.6571 39.4521 16.6571 39.5616C16.6571 39.726 16.6571 39.9178 16.6571 40.0822C16.6571 42.2466 17.2892 44.3562 18.3337 46.2466C19.7356 48.6575 21.7971 50.5753 24.1609 51.9726C24.7656 52.3288 25.4253 52.6575 26.0575 52.9589L26.2224 53.0411C29.3284 54.5479 32.9841 55.1507 36.3925 55.2329H36.5574C41.4225 55.3699 46.2877 54.274 50.713 52.3014L50.9054 52.2192C51.6476 51.8904 52.3347 51.5342 53.0494 51.1233C53.4067 50.9315 53.764 50.7397 54.1214 50.6027V50.7397C53.929 50.8767 53.7365 51.0137 53.5441 51.1233L53.3517 51.2329C53.3517 51.2329 53.1044 51.3973 52.9669 51.4795C52.7745 51.589 52.5821 51.726 52.3897 51.863C51.6751 52.3288 50.9329 52.7945 50.1633 53.2329C49.9984 53.3151 49.8609 53.4247 49.696 53.5069C45.9578 55.6712 41.5875 57.0137 37.272 57.5068H37.1071C36.8597 57.5616 36.5849 57.589 36.3375 57.6164H36.0626L35.8153 57.6712C35.6687 57.7078 35.5495 57.7626 35.4579 57.8356C35.293 58.0548 35.1831 58.3014 35.0731 58.5479L34.9907 58.7123C34.9082 58.8767 34.8257 59.0411 34.7708 59.2329L34.6058 59.589C34.276 60.3014 33.9736 61.0137 33.6438 61.726C33.4514 62.1918 33.2315 62.6575 33.0116 63.0959C32.7642 63.6164 32.5169 64.137 32.297 64.6575L32.2145 64.8219C31.8022 65.6986 31.4174 66.5479 31.0326 67.4247C30.6203 68.3562 30.208 69.2877 29.7682 70.1918L29.6857 70.3562C29.6033 70.5205 29.5208 70.6849 29.4658 70.8493L29.4109 70.9863C29.2459 71.3151 29.081 71.6438 28.9161 71.9726L28.7787 71.8904L28.6962 57.6164C28.1098 57.5069 27.5326 57.3973 26.9646 57.2877C23.1439 56.5753 19.3233 55.2603 16.2722 52.7671C16.2722 52.7671 16.1531 52.7123 15.9149 52.6027C15.5301 52.6027 15.2552 52.6301 14.8704 52.7671L14.7055 52.8219C14.1283 53.0411 13.5511 53.2603 12.9738 53.4795C12.0943 53.8082 11.2422 54.137 10.3626 54.4658C10.2252 54.5205 10.0877 54.5753 9.92282 54.6301C9.73042 54.7123 9.51053 54.7671 9.31812 54.8493L9.12571 54.9315C8.82336 55.0411 8.52101 55.1233 8.21865 55.1781C8.57598 54.7671 8.93331 54.3562 9.31812 54H9.45555L9.53801 53.7808C9.53801 53.7808 9.64796 53.6712 9.78539 53.5616C10.0603 53.3425 10.3076 53.0959 10.5275 52.8767L10.6375 52.7671C10.6375 52.7671 10.8574 52.5479 10.9673 52.4384C11.3796 52 11.8194 51.589 12.2867 51.2055C12.5066 51.0137 12.699 50.8219 12.8914 50.6301L13.0013 50.5206C13.0013 50.5206 13.1937 50.3288 13.2762 50.2192C13.1663 49.8356 12.9189 49.5342 12.699 49.2055C11.1048 46.9315 10.1702 44.4658 9.92282 41.6986C9.7579 39.6986 10.0053 37.5616 10.6925 35.6712C10.7474 35.4795 10.8024 35.3151 10.8024 35.1233L10.7199 34.9315C10.5275 34.7945 10.3076 34.7123 10.0877 34.6301L9.89534 34.5479C9.67544 34.4658 9.45555 34.3836 9.26314 34.274C9.12571 34.2192 8.96079 34.137 8.82336 34.0822C8.43855 33.9178 8.05373 33.7534 7.69641 33.6164C7.39405 33.4795 7.0917 33.3699 6.76186 33.2329C6.43202 33.0959 6.10218 32.9589 5.77234 32.8219C4.6179 32.3288 3.46346 31.8356 2.30902 31.3425L2.08913 31.2603L1.64934 31.0685C1.34699 30.9315 1.04464 30.7945 0.742283 30.6849L0.604849 30.6301C0.604849 30.6301 0.357469 30.5205 0.220036 30.4658L0.0551162 30.3836L-0.0273438 30.2466C0.989662 30.3014 2.03416 30.3562 3.05116 30.4384C4.56293 30.5205 6.10218 30.6301 7.61395 30.7397H7.99876C8.65844 30.7945 9.14404 30.8402 9.45555 30.8767C10.6466 30.968 11.8377 31.0137 13.0288 31.0137L13.0838 30.8493C13.1663 30.6575 13.2487 30.5479 13.3587 30.3836L13.4686 30.2466L13.5786 30.0822L13.6885 29.9178C13.7984 29.7534 13.9084 29.6164 14.0458 29.4521L14.2107 29.2603C14.3482 29.0685 14.4856 28.9041 14.6505 28.7397L14.8154 28.5205C15.2827 27.9452 15.805 27.3973 16.3547 26.8767L16.5471 26.6849C16.9319 26.3014 17.3442 25.9178 17.784 25.589C17.9214 25.4795 18.0589 25.3699 18.1963 25.2329C19.1309 24.411 20.1753 23.6986 21.2198 23.0411C21.3023 22.9863 21.4122 22.9315 21.4947 22.8493L21.6321 22.7671C21.6321 22.7671 21.8795 22.5753 21.9895 22.4932C21.9895 22.4932 22.017 22.3927 22.0719 22.1918C22.0353 22.0457 21.9803 21.8904 21.907 21.726L21.852 21.589C21.7971 21.4521 21.7421 21.2877 21.6871 21.1507L21.5772 20.8493C21.2198 19.9726 20.8625 19.1233 20.5052 18.2466C20.3403 17.8356 20.1479 17.3973 19.9829 16.9863L19.928 16.8219C19.928 16.8219 19.8455 16.5753 19.7905 16.4384L19.873 16.2192C19.873 16.2192 19.9829 16.3288 20.0929 16.4384V16.5753L20.2303 16.6301C20.4502 16.7397 20.5876 16.8767 20.7526 17.0685L20.8625 17.1781C20.8625 17.1781 21.0824 17.3973 21.1924 17.5068L21.4122 17.726C21.5772 17.8904 21.7421 18.0548 21.907 18.2192C22.1269 18.4384 22.3193 18.6301 22.5392 18.8493C22.7041 19.0137 22.869 19.1781 23.034 19.3425L23.2539 19.5616C23.6387 19.9452 24.0235 20.3288 24.3808 20.7671C24.3808 20.7671 24.4633 20.8311 24.6282 20.9589C24.9031 20.9863 25.068 20.9589 25.3154 20.8493C25.3978 20.7945 25.5078 20.7671 25.5902 20.7123C27.9541 19.5616 30.5653 18.7123 33.1765 18.274H33.3415C33.6163 18.1918 33.8912 18.1644 34.1386 18.1096C34.615 18.0365 35.0548 17.8904 35.4579 17.6712C35.6778 17.4247 35.8153 17.1781 35.9527 16.8493L36.0077 16.7123C36.2276 16.1644 36.4474 15.589 36.6673 15.0411C36.8048 14.7123 36.9147 14.3562 37.0522 14.0274L37.1346 13.8082C37.4095 13.0959 37.6843 12.411 37.9592 11.6986L38.2616 10.9589L38.344 10.7671C38.6464 9.9726 38.9762 9.17808 39.2786 8.35616C39.8008 6.9863 40.3231 5.64384 40.8728 4.27397L40.9553 4.08219C41.1202 3.69863 41.2576 3.28767 41.4225 2.90411C41.5325 2.63014 41.6424 2.35616 41.7524 2.05479L41.9173 1.64384C41.9997 1.45205 42.0547 1.28767 42.1372 1.09589L42.1922 0.931507C42.3021 0.630137 42.4395 0.328767 42.577 0.0547945" fill="white"/>
<path d="M54.6709 25.2053H54.8083C54.9732 25.2053 55.1381 25.2053 55.3031 25.2053H55.6604C55.9902 25.2053 56.2926 25.2053 56.6224 25.2053H57.6394C58.2166 25.2053 58.7664 25.2053 59.3436 25.2053C60.0033 25.2053 60.6355 25.2053 61.2951 25.2053C61.9823 25.2053 62.697 25.2053 63.3841 25.2053H63.9888C65.2807 25.2053 66.5451 25.2053 67.837 25.2601H68.1118C69.6786 25.3149 71.1629 25.5888 72.5097 26.3834C72.867 26.6299 73.2244 26.9039 73.5267 27.2053V27.3423H73.6641C74.1864 27.945 74.5437 28.7121 74.7361 29.5067C74.9285 30.9039 74.6812 32.356 74.1864 33.671C73.4717 35.4245 72.2898 36.9313 70.8055 38.1368C68.909 39.5615 66.8749 40.5204 64.5111 40.9039C63.6865 41.0135 62.8619 41.0409 62.0373 41.0409C61.8449 41.0409 61.6525 41.0409 61.4601 41.0409C60.9103 41.0409 60.3881 41.0409 59.8384 41.0409C59.5085 41.0409 59.1787 41.0409 58.8488 41.0409C58.7114 41.0409 58.6015 41.0409 58.464 41.0409C58.2991 41.0409 58.1067 41.0409 57.9418 41.0409H57.7769C57.6669 41.0409 57.5386 41.05 57.392 41.0683C57.1996 41.2053 57.1172 41.3149 57.0072 41.5341L56.9523 41.6984L56.8973 41.8902L56.8148 42.1094L56.7324 42.3286C56.6774 42.493 56.6224 42.6573 56.5674 42.8217C56.485 43.0683 56.4025 43.3149 56.3201 43.5615L55.9902 44.5478C55.7978 45.0957 55.6054 45.671 55.413 46.219C55.3855 46.3286 55.358 46.4108 55.3031 46.5204C55.2481 46.6573 55.2206 46.7943 55.1656 46.9039L55.0832 47.1231L55.0007 47.2875C54.8541 47.3788 54.7258 47.4336 54.6159 47.4519H54.4235H54.2036H53.9562H53.7088C53.434 47.4519 53.1591 47.4519 52.8842 47.4519H52.307C51.8672 47.4519 51.4274 47.4519 50.9602 47.4519C50.4654 47.4519 49.9432 47.4519 49.4484 47.4519C48.4039 47.4519 47.3594 47.4519 46.3149 47.4519L46.2325 47.2327C46.2508 47.1414 46.2783 47.0318 46.3149 46.9039L46.3699 46.7121L46.4524 46.493L46.5348 46.2738C46.6173 46.0272 46.6997 45.808 46.7822 45.5615C46.8372 45.3971 46.8921 45.2327 46.9471 45.0683C47.0846 44.6573 47.222 44.2464 47.3869 43.8354C47.4968 43.5341 47.6068 43.2053 47.7167 42.9039C47.8267 42.6025 47.9366 42.2738 48.0466 41.9724C48.4864 40.7121 48.9262 39.4245 49.3659 38.1368C50.1081 35.945 50.8777 33.7532 51.6473 31.5615C51.7848 31.1779 51.9222 30.7943 52.0596 30.4108C52.3345 29.6436 52.5819 28.9039 52.8293 28.1368L52.9117 27.8902C53.0217 27.5615 53.1316 27.2601 53.2416 26.9313C53.324 26.6573 53.4065 26.3834 53.5164 26.1368L53.5989 25.8902L53.6813 25.671L53.7363 25.4793C53.7913 25.3697 53.8646 25.2875 53.9562 25.2327C54.1761 25.1505 54.3685 25.1505 54.6159 25.1505M60.7454 30.3834C60.7454 30.3834 60.608 30.4656 60.5255 30.6025C60.4706 30.7304 60.4156 30.8674 60.3606 31.0135L60.2781 31.2875L60.1682 31.5615L60.0583 31.8628C59.9758 32.1094 59.8933 32.3834 59.7834 32.6299C59.6734 32.9313 59.5635 33.2601 59.4535 33.5615C59.3711 33.808 59.2886 34.0546 59.2062 34.3012C59.0412 34.7669 58.8763 35.2601 58.7114 35.7258C58.6748 35.8172 58.6564 35.9176 58.6564 36.0272C59.0687 36.0272 59.481 35.9998 59.8933 35.9724C60.0308 35.9724 60.1682 35.9724 60.3056 35.9724C61.515 35.9176 62.8069 35.8628 63.9064 35.3149C64.1812 35.1505 64.4011 34.9587 64.6485 34.7395L64.786 34.6025C65.2532 34.1368 65.4731 33.5341 65.693 32.9313C65.7755 32.4656 65.8304 31.9998 65.693 31.5341C65.5281 31.2327 65.3082 31.0683 65.0333 30.8765C64.3187 30.493 63.5216 30.3834 62.697 30.356H62.532C62.532 30.356 62.2847 30.356 62.1747 30.356C61.9823 30.356 61.8174 30.356 61.625 30.356C61.515 30.356 61.4051 30.356 61.2677 30.356H61.1027C60.9928 30.356 60.8554 30.356 60.6904 30.356M50.4104 25.4793L50.6303 25.5341L50.8227 25.5888H51.0151L51.1526 25.671L51.235 25.808C51.1984 25.9359 51.1526 26.082 51.0976 26.2464L50.9877 26.5204L50.9327 26.6573C50.8502 26.9039 50.7403 27.1779 50.6578 27.4245L50.6028 27.5888C50.3555 28.2738 50.1356 28.9861 49.8882 29.671C49.8057 29.945 49.6958 30.219 49.6133 30.5204L49.5584 30.6573C49.5034 30.7943 49.4484 30.9587 49.4209 31.0957L49.3385 31.3423L49.256 31.5341L49.1186 31.6162C49.1186 31.6162 48.9811 31.5888 48.8437 31.5067L48.6788 31.4245L48.4864 31.3423C47.7717 31.0409 47.0296 30.8217 46.26 30.6573H46.095C44.2809 30.219 42.2744 30.3012 40.4878 30.8491C39.2509 31.2327 38.0964 31.808 37.1069 32.6573L36.9145 32.8217C35.6776 33.8902 34.798 35.2327 34.2758 36.7669C33.9184 37.808 33.6711 38.8491 33.8085 39.945C33.9184 40.4382 34.1109 40.8217 34.4132 41.2053C34.7705 41.5888 35.1279 41.9176 35.5951 42.082C36.6396 42.4108 37.8215 42.3286 38.8935 42.1916L39.031 42.1368C39.0859 42.0455 39.1226 41.9359 39.1409 41.808L39.1959 41.6162L39.2509 41.3971C39.2509 41.3971 39.3333 41.1505 39.3883 41.0135L39.4433 40.8217L39.5257 40.6025L39.6082 40.3834L39.7731 39.9176C39.8556 39.671 39.938 39.4519 40.0205 39.2053C40.5152 37.7624 40.8359 36.9678 40.9825 36.8217C40.9825 36.8217 41.1199 36.8217 41.2849 36.8217H41.6697H41.8896C42.137 36.8217 42.3568 36.8217 42.6042 36.8217H43.099C43.5388 36.8217 43.9511 36.8217 44.3909 36.8217C44.8306 36.8217 45.2704 36.8217 45.7102 36.8217C46.5623 36.8217 47.4419 36.8217 48.294 36.8217C48.2023 37.3331 48.1107 37.7076 48.0191 37.945L47.9366 38.1368L47.8542 38.356L47.7717 38.5752C47.6893 38.8217 47.6068 39.0683 47.5243 39.3149L47.3319 39.8354C47.222 40.1916 47.0846 40.5204 46.9746 40.8765C46.7822 41.3971 46.5898 41.945 46.4249 42.4656C46.3149 42.7943 46.205 43.1231 46.0675 43.4519C45.8751 43.9998 45.6827 44.5751 45.4903 45.1231L45.4079 45.3971C45.3529 45.5615 45.2979 45.7258 45.2429 45.8902L45.1605 46.1094L45.1055 46.3012C45.0231 46.4656 44.9681 46.5478 44.8032 46.6847C44.6566 46.7395 44.4916 46.7852 44.3084 46.8217H44.171C43.6762 46.9861 43.154 47.0957 42.6592 47.1779H42.5218C41.7247 47.3697 40.955 47.4793 40.1579 47.5615H40.0205C38.9485 47.6984 37.849 47.7806 36.7771 47.7806H36.6121C36.3373 47.7806 36.0624 47.7806 35.7875 47.7806C35.5676 47.7806 35.3477 47.7806 35.1279 47.7806C32.6266 47.7806 30.2902 47.5615 28.0363 46.4108C27.679 46.1916 27.3491 45.9724 27.0193 45.6984L26.8544 45.5615C26.0847 44.9313 25.5625 44.1094 25.1777 43.1779C24.6554 41.7258 24.573 40.1368 24.8204 38.6025C25.2876 35.9998 26.4696 33.4519 28.1462 31.4245C28.4211 31.0957 28.696 30.7943 28.9708 30.493C29.0991 30.3651 29.2091 30.2373 29.3007 30.1094C29.5206 29.8354 29.768 29.6436 30.0428 29.4245L30.2352 29.2327C32.5716 27.1779 35.5951 25.8902 38.6461 25.2601C39.6357 25.0683 40.6252 24.9313 41.6147 24.8491H41.7521C44.6657 24.6025 47.6618 24.8491 50.5204 25.3971M96.7804 25.5888C96.7804 25.5888 96.8354 25.6984 96.8629 25.8902C96.8262 26.0363 96.7804 26.1916 96.7254 26.356L96.6705 26.493C96.6155 26.6299 96.5605 26.7943 96.5056 26.9313L96.3956 27.2327C96.3131 27.4519 96.2582 27.671 96.1757 27.8902C96.0658 28.1642 95.9833 28.4382 95.8734 28.7121C95.7909 28.9313 95.7359 29.1505 95.6535 29.3423C95.626 29.4519 95.571 29.5341 95.5435 29.6436C95.3511 30.1916 95.1587 30.7121 94.9113 31.2327C94.499 31.1231 94.0867 31.0409 93.6744 30.9039C91.2281 30.1916 88.452 29.8628 85.9232 30.4108C85.5109 30.5204 85.1261 30.6573 84.7688 30.9587C84.5214 31.2053 84.3839 31.5067 84.274 31.8354C84.274 32.0181 84.3015 32.1916 84.3565 32.356C84.5214 32.5478 84.6313 32.6573 84.8787 32.7395L85.1536 32.8217L85.291 32.8765C85.7858 33.0409 86.308 33.1779 86.8028 33.2875L87.1051 33.3697C87.4075 33.4519 87.7098 33.5341 88.0397 33.6162C88.397 33.6984 88.7543 33.808 89.1116 33.8902C89.2491 33.9176 89.3865 33.9724 89.5239 33.9998C90.6784 34.3012 91.7229 34.6025 92.6299 35.4519C93.0697 35.9176 93.427 36.4382 93.592 37.0409C93.8393 38.219 93.592 39.3423 93.2621 40.4656C92.7124 42.082 91.7229 43.5615 90.431 44.6847C88.5619 46.2464 86.2255 47.1779 83.8617 47.5889C79.6562 48.2738 74.7086 48.1094 70.6131 46.8765C70.7231 46.4108 70.833 45.9724 70.9979 45.5067L71.0804 45.3149C71.1629 45.0957 71.2178 44.8765 71.3003 44.6847L71.4377 44.2464C71.7951 43.2053 72.1524 42.1916 72.5372 41.1505C72.977 41.2875 73.3893 41.3971 73.8016 41.5615C76.4403 42.4656 79.3539 42.8765 82.13 42.4108C82.7073 42.2738 83.2845 42.1094 83.7517 41.7532C83.9442 41.5615 84.1366 41.3423 84.274 41.0957C84.274 40.9861 84.274 40.8674 84.274 40.7395V40.5478C84.274 40.4199 84.2282 40.292 84.1366 40.1642C83.9442 39.945 83.8067 39.8902 83.5319 39.808L83.3944 39.7532C82.4874 39.4793 81.5803 39.2601 80.6732 39.0135C80.3709 38.9313 80.096 38.8491 79.7937 38.7669C79.6013 38.7121 79.4363 38.6573 79.2439 38.6299C78.117 38.3286 77.1 38.0272 76.2204 37.2601L76.0555 37.1231C75.5882 36.7121 75.3408 36.1916 75.0934 35.6436C75.011 35.3971 74.956 35.1779 74.956 34.9039V34.7121C74.8736 33.4519 75.2859 32.1094 75.8356 30.9861C76.6602 29.4245 77.8696 28.1916 79.3814 27.2601C81.5803 25.945 84.0266 25.3149 86.5279 25.0409H86.7478C90.0737 24.6847 93.427 24.9587 96.7254 25.6162" fill="white"/>
<path d="M115.142 25.2878C115.27 25.2695 115.407 25.2604 115.554 25.2604H115.801H116.076C116.186 25.2604 116.269 25.2604 116.379 25.2604C116.653 25.2604 116.928 25.2604 117.203 25.2604C117.505 25.2604 117.78 25.2604 118.083 25.2604C118.577 25.2604 119.1 25.2604 119.594 25.2604C120.337 25.2604 121.051 25.2604 121.793 25.2604C122.975 25.2604 124.157 25.2604 125.367 25.2604C126.521 25.2604 127.676 25.2604 128.83 25.2604H130.122C133.09 25.2604 136.059 25.2604 139 25.2604C139 25.37 138.945 25.4795 138.918 25.5617V25.7261C138.835 25.9453 138.753 26.1645 138.67 26.3836L138.588 26.6576L138.478 26.959L138.368 27.2604C138.285 27.5343 138.175 27.8083 138.093 28.0549C137.983 28.3836 137.873 28.7124 137.763 29.0138C137.681 29.2604 137.598 29.5069 137.488 29.7809L137.433 29.9179C137.433 29.9179 137.351 30.1919 137.296 30.3289C137.241 30.4932 137.186 30.6576 137.131 30.8494L137.048 31.096L136.993 31.3152C136.911 31.5069 136.856 31.5891 136.691 31.6987C136.6 31.717 136.499 31.7261 136.389 31.7261H136.196H136.004H135.784C135.537 31.7261 135.317 31.7261 135.069 31.7261C134.905 31.7261 134.74 31.7261 134.575 31.7261C134.135 31.7261 133.695 31.7261 133.283 31.7261C132.596 31.7261 131.881 31.7261 131.194 31.7261C130.946 31.7261 130.699 31.7261 130.452 31.7261H130.012H129.819H129.627H129.462C129.352 31.7261 129.233 31.7809 129.105 31.8905C128.977 32.0001 128.931 32.1188 128.967 32.2467L128.885 32.4658L128.802 32.7124L128.72 32.9864C128.665 33.1782 128.583 33.37 128.528 33.5617C128.418 33.8631 128.335 34.1645 128.225 34.4658C128.088 34.822 127.978 35.2056 127.84 35.5617C127.538 36.4932 127.208 37.3973 126.878 38.3289C126.768 38.6576 126.659 38.9864 126.549 39.2878C126.219 40.2467 125.861 41.233 125.532 42.1919C125.312 42.7946 125.119 43.3699 124.899 43.9727L124.817 44.2467C124.652 44.685 124.515 45.1508 124.35 45.5891L124.267 45.8631C124.212 46.0275 124.157 46.1919 124.102 46.3563C123.992 46.6576 123.91 46.9316 123.745 47.2056C123.635 47.2969 123.525 47.3608 123.415 47.3973C123.058 47.4247 122.728 47.4247 122.371 47.4247H122.123C121.876 47.4247 121.601 47.4247 121.354 47.4247H120.804C120.337 47.4247 119.869 47.4247 119.375 47.4247C118.88 47.4247 118.413 47.4247 117.918 47.4247C116.983 47.4247 116.021 47.4247 115.087 47.4247C115.142 47.096 115.224 46.7946 115.334 46.4658L115.389 46.3289C115.389 46.3289 115.471 46.1097 115.499 46.0001C115.581 45.7809 115.664 45.5343 115.746 45.3152L115.884 44.959C116.049 44.4658 116.241 43.9727 116.406 43.4795L116.488 43.233C116.681 42.6576 116.873 42.0823 117.093 41.5069C117.588 40.0275 118.11 38.548 118.632 37.0686L118.687 36.8768C118.935 36.1919 119.182 35.5069 119.43 34.7946C119.539 34.4932 119.649 34.1645 119.759 33.8631C119.814 33.6987 119.869 33.5617 119.924 33.3973C120.007 33.1782 120.062 32.9864 120.144 32.7672L120.199 32.5754L120.254 32.411L120.309 32.2467C120.346 32.1188 120.355 31.9453 120.337 31.7261L112.888 31.6439C113.025 31.1508 113.163 30.685 113.327 30.1919L113.382 30.0275C113.437 29.8357 113.52 29.6439 113.575 29.4795C113.85 28.7124 114.125 27.9453 114.372 27.1782L114.427 27.0138C114.509 26.7398 114.592 26.4932 114.674 26.2193L114.757 25.9453L114.839 25.6987C114.922 25.4795 114.977 25.3699 115.142 25.2056" fill="white"/>
<path d="M105.274 25.2876C105.384 25.2694 105.494 25.2694 105.604 25.2876H105.824H106.071H106.318C106.593 25.2876 106.868 25.2876 107.143 25.2876C107.335 25.2876 107.528 25.2876 107.72 25.2876C108.187 25.2876 108.627 25.2876 109.095 25.2876C109.617 25.2876 110.139 25.2876 110.634 25.2876C111.706 25.2876 112.75 25.2876 113.822 25.2876C113.795 25.5342 113.74 25.7808 113.657 26.0274L113.602 26.1917L113.547 26.3561L113.492 26.5479C113.41 26.7397 113.355 26.9589 113.273 27.1506L113.135 27.589C113.025 27.8904 112.915 28.1643 112.833 28.4657C112.613 29.1232 112.365 29.7808 112.146 30.4383L112.008 30.8219C111.541 32.1643 111.074 33.4794 110.634 34.8219C110.002 36.6849 109.342 38.5753 108.682 40.4383C108.435 41.1232 108.215 41.8082 107.968 42.4657L107.885 42.6575C107.583 43.4794 107.308 44.3287 107.006 45.1506L106.923 45.3972C106.786 45.7534 106.676 46.1369 106.538 46.4931L106.428 46.8493L106.373 47.0137C106.373 47.0137 106.291 47.2602 106.236 47.3698C106.089 47.4611 105.961 47.5159 105.851 47.5342H105.466H105.246H104.999C104.724 47.5342 104.477 47.5342 104.202 47.5342H103.652C103.212 47.5342 102.8 47.5342 102.36 47.5342C101.921 47.5342 101.481 47.5342 101.041 47.5342C100.656 47.5342 100.299 47.5342 99.914 47.5342H99.3643C99.1169 47.5342 98.8695 47.5342 98.5946 47.5342H98.1549H97.9624C97.8525 47.5342 97.7242 47.5068 97.5776 47.452C97.6601 46.9863 97.7975 46.5753 97.935 46.1369L97.9899 45.9452C98.0724 45.7534 98.1274 45.5342 98.2098 45.3424C98.2648 45.2054 98.3198 45.041 98.3473 44.9041C98.7046 43.8356 99.0894 42.7671 99.4742 41.6712C99.8865 40.4931 100.299 39.315 100.684 38.1643C101.151 36.8219 101.618 35.4794 102.085 34.1643C102.47 33.0411 102.855 31.9178 103.267 30.7945C103.909 28.9315 104.367 27.6073 104.642 26.8219L104.752 26.4657C104.807 26.3013 104.862 26.1643 104.917 26L104.999 25.7534C105.054 25.6255 105.127 25.4794 105.219 25.315" fill="white"/>
</g>
<defs>
<clipPath id="clip0_218_424">
<rect width="139" height="72" fill="white"/>
</clipPath>
</defs>
</svg>
