<svg width="113" height="51" viewBox="0 0 113 51" fill="none" xmlns="http://www.w3.org/2000/svg">
<path d="M35.8278 29.1068V21.2571L28.379 13.9224H7.4463L0 21.3077V21.581C0 28.6866 0 35.3975 0.049055 42.1576V42.4259L7.44379 49.8644H28.3312L36.2957 41.9589L29.6255 35.2507L35.8265 29.1055L35.8278 29.1068ZM9.95314 25.6887L1.33581 39.8545C1.30185 33.9105 1.30059 27.8654 1.30059 22.4618L9.689 25.0003C9.7217 25.2471 9.81101 25.4812 9.95188 25.6875L9.95314 25.6887ZM1.88799 21.2735L7.4375 15.7687L10.1707 23.6425C10.1343 23.6766 10.1003 23.7121 10.0676 23.75L1.88799 21.2748V21.2735ZM13.1933 25.1901L34.5272 22.2808V28.5576L28.6041 34.4281L13.1933 25.1901ZM15.553 39.7304C15.5932 39.6355 15.6247 39.5368 15.646 39.4356L28.4469 35.9176L34.4492 41.9551L27.8406 48.5141L15.553 39.7304ZM14.1819 40.6909C14.3102 40.6846 14.436 40.6618 14.5593 40.6251L25.657 48.5584H8.93305L14.1819 40.6909ZM15.3693 38.1549C15.1417 37.8487 14.8083 37.6323 14.4373 37.5513L12.182 26.1076L26.9652 34.9685L15.3706 38.1549H15.3693ZM25.7728 15.2309L12.1543 23.4868C11.9304 23.3299 11.6701 23.235 11.3984 23.2109L8.62866 15.2309H25.7728ZM10.9456 26.5632L13.1644 37.8234C12.7631 38.1208 12.5216 38.5928 12.5216 39.1028C12.5216 39.5064 12.6776 39.8949 12.9505 40.1873L7.61485 48.1851L1.52196 42.0551L10.9456 26.5632ZM14.2914 23.7184L28.018 15.3979L33.7712 21.0634L14.2914 23.7197V23.7184Z" fill="white"/>
<path d="M57.7668 8.32276V14.1692H45.2465L37.9536 21.5596V42.4754L38.2806 42.8082C39.5297 44.1192 40.824 45.4125 42.1157 46.7059C43.0805 47.6714 44.0767 48.6673 45.0515 49.6709L45.2427 49.8683H66.0898L73.3852 42.4766V8.23417L65.5754 0.373047L57.7656 8.32276H57.7668ZM52.4186 33.9663L59.3542 23.5034C59.5164 23.5312 59.6837 23.5325 59.8473 23.5072L71.8368 42.1881L65.8647 48.2383L52.567 35.3419C52.6274 35.1711 52.6588 34.9888 52.6588 34.8079C52.6588 34.5105 52.5745 34.2182 52.4186 33.9676V33.9663ZM51.3368 33.2387C51.0714 33.1944 50.7985 33.221 50.5457 33.3108L40.1435 22.4885L58.1668 22.5821C58.197 22.6505 58.2322 22.715 58.2712 22.7783L51.3356 33.2387H51.3368ZM46.4615 48.5572L51.1607 36.3973C51.3331 36.3884 51.5029 36.3492 51.6639 36.2847L64.3176 48.5572H46.4615ZM59.3919 20.3574C58.8611 20.4333 58.3982 20.7813 58.1731 21.2736L40.1586 21.1812L45.7861 15.4777H59.0649V8.86058L64.2509 3.58229L59.3894 20.3587L59.3919 20.3574ZM49.7872 36.3429L45.2704 48.0283C44.488 47.2323 43.7019 46.4452 42.9862 45.7289C42.0151 44.7583 40.824 43.5662 39.6907 42.3906L49.7872 36.3416V36.3429ZM49.508 34.9863L39.2542 41.1289V23.4452L49.6098 34.2194C49.5356 34.4054 49.4966 34.6054 49.4966 34.8053C49.4966 34.8648 49.5004 34.9243 49.5067 34.985L49.508 34.9863ZM61.0887 21.366L72.0859 10.1982V40.1633L60.939 22.796C61.1038 22.5404 61.1931 22.2417 61.1931 21.9342C61.1931 21.7393 61.1566 21.547 61.0875 21.3647L61.0887 21.366ZM71.8695 8.55813L60.9541 19.6424L65.9049 2.55599L71.8695 8.55813Z" fill="white"/>
<path d="M112.054 21.7242L104.042 13.772H83.0074L75.512 21.2598V29.007L81.7168 35.2496L74.9976 42.0072L82.908 49.9658H104.042L111.487 42.5248V34.7257L105.283 28.5375L112.053 21.7229L112.054 21.7242ZM98.0886 22.5328L103.828 15.3994L109.702 21.2294L98.0886 22.5328ZM110.186 35.7204V41.9819L103.987 48.1789L99.188 37.2984C99.3289 37.1402 99.437 36.9542 99.505 36.7542L110.186 35.7204ZM88.8902 27.7377C88.6399 27.5808 88.3506 27.496 88.055 27.496C87.1833 27.496 86.4739 28.2085 86.4739 29.0855C86.4739 29.3107 86.5217 29.5322 86.6135 29.7372L82.6086 34.2942L76.8139 28.4654V22.2469L94.69 23.8464L88.8915 27.7377H88.8902ZM88.3456 30.6509C88.5242 30.618 88.694 30.5534 88.8499 30.4623L96.4585 35.9304C96.4384 36.0329 96.4271 36.1367 96.4271 36.2405C96.4271 36.3986 96.451 36.5543 96.4962 36.7036L84.2929 47.4589L88.3456 30.6509ZM85.4224 15.0817H102.411L96.9843 21.8254C96.5742 21.7179 96.1164 21.7875 95.7529 22.014L85.4224 15.0817ZM89.6134 28.8261L95.7478 24.7095C95.8573 24.7791 95.9755 24.8347 96.1 24.874L97.2019 34.8548L89.6034 29.3942C89.6235 29.2917 89.6348 29.188 89.6348 29.0842C89.6348 28.9969 89.6273 28.9108 89.6134 28.8248V28.8261ZM97.3553 37.6869C97.5566 37.7793 97.7754 37.8286 97.9993 37.8299L102.775 48.6586H84.9079L97.3553 37.6869ZM99.3804 35.4508C99.1855 35.1091 98.8685 34.8497 98.4974 34.727L97.3931 24.7297C97.7201 24.5323 97.9692 24.2172 98.0874 23.8515L109.36 22.586L103.441 28.5439L109.394 34.4827L99.3804 35.4521V35.4508ZM94.1051 22.481L77.6138 21.0042L83.357 15.2678L94.1051 22.481ZM83.5294 35.2218L86.8035 31.4962L82.8187 48.0258L76.8378 42.0085L83.3457 35.4635L83.5419 35.2357L83.5294 35.223V35.2218Z" fill="white"/>
</svg>
