<svg width="120" height="32" viewBox="0 0 120 32" fill="none" xmlns="http://www.w3.org/2000/svg">
<g clip-path="url(#clip0_218_455)">
<path d="M24.2735 17.4115C25.1552 18.5407 25.596 20.0979 25.596 22.0831C25.596 25.4343 24.5254 27.8657 22.3752 29.3591C20.2339 30.8617 17.058 31.6084 12.8655 31.6084H0.287899C0.134953 31.6084 0 31.4809 0 31.317V0.291406C0 0.12749 0.125956 0 0.287899 0H12.7845C16.6892 0 19.5951 0.737621 21.4845 2.20376C23.3738 3.66989 24.3275 5.71884 24.3275 8.33238C24.3275 11.3648 23.0769 13.5686 20.5848 14.9437C22.1592 15.4536 23.3918 16.2823 24.2735 17.4115ZM6.95457 6.3745V12.749H12.6766C14.287 12.749 15.4656 12.494 16.2303 11.9841C16.9861 11.4741 17.3639 10.6454 17.3639 9.4889C17.3639 8.214 16.9861 7.37621 16.2303 6.97553C15.4746 6.57484 14.368 6.3745 12.9195 6.3745H6.95457ZM17.274 24.5236C18.1916 24.041 18.6415 23.0393 18.6415 21.5094C18.6415 19.9795 18.0567 19.0689 16.8871 18.5862C15.7175 18.1036 14.314 17.8668 12.6766 17.8668H6.95457V25.243H12.9195C14.9078 25.243 16.3563 25.0063 17.274 24.5236Z" fill="white"/>
<path d="M33.8376 30.4428C31.9303 29.4047 30.4548 27.9476 29.4112 26.0808C28.3675 24.214 27.8457 22.0649 27.8457 19.6426C27.8457 17.2203 28.3675 15.0712 29.4112 13.2043C30.4548 11.3375 31.9303 9.88049 33.8376 8.84236C35.7449 7.80422 37.9762 7.28516 40.5313 7.28516C43.0864 7.28516 45.3176 7.80422 47.2249 8.84236C49.1323 9.88049 50.6077 11.3375 51.6514 13.2043C52.695 15.0712 53.2168 17.2203 53.2168 19.6426C53.2168 22.0649 52.695 24.214 51.6514 26.0808C50.6077 27.9476 49.1323 29.4047 47.2249 30.4428C45.3176 31.4809 43.0864 32 40.5313 32C37.9762 32 35.7449 31.4809 33.8376 30.4428ZM44.8408 24.0228C45.7854 22.9482 46.2623 21.4912 46.2623 19.6426C46.2623 17.794 45.7854 16.3278 44.8408 15.2624C43.8961 14.1969 42.4566 13.6597 40.5313 13.6597C38.6059 13.6597 37.1754 14.1969 36.2218 15.2624C35.2771 16.3369 34.8003 17.794 34.8003 19.6426C34.8003 21.4912 35.2771 22.9573 36.2218 24.0228C37.1664 25.0973 38.6059 25.6255 40.5313 25.6255C42.4566 25.6255 43.8871 25.0882 44.8408 24.0228Z" fill="white"/>
<path d="M80.5941 25.8075V31.417C80.5941 31.5445 80.5131 31.6538 80.3962 31.6902C80.1892 31.754 79.9013 31.8177 79.5325 31.8724C79.0106 31.9543 78.4528 31.9908 77.8501 31.9908C76.0867 31.9908 74.4402 31.6447 72.9288 30.9617C71.4173 30.2787 70.1847 29.1951 69.2401 27.7289C68.2954 26.2628 67.8186 24.3778 67.8186 22.0738C67.8186 20.4802 68.1065 18.9594 68.6913 17.5206C69.2761 16.0818 69.8788 14.9799 70.5176 14.215V14.0693H63.608C63.1672 19.1143 62.3305 24.8786 61.0979 31.3624C61.0709 31.499 60.954 31.5992 60.819 31.5992H53.6305C53.4416 31.5992 53.3066 31.417 53.3606 31.2258C54.3233 28.0568 55.169 24.824 55.8977 21.5366C56.6535 18.1217 57.1933 15.1165 57.5082 12.5303C56.6535 12.0477 55.9787 11.4011 55.4749 10.5906C54.9711 9.78017 54.7192 8.82399 54.7192 7.74032C54.7192 6.21044 55.277 4.96286 56.4016 4.00669C57.5172 3.05051 59.1186 2.56787 61.2059 2.56787C62.1326 2.56787 63.0322 2.64983 63.9049 2.81374C64.0399 2.84106 64.1389 2.95945 64.1389 3.10515C64.1389 4.17971 64.1029 5.70048 64.0489 7.64926H77.7691C77.922 7.64926 78.057 7.77675 78.057 7.94067V13.8963C78.057 14.0055 77.994 14.0966 77.904 14.1513C77.0223 14.643 76.2936 15.4535 75.7088 16.5827C75.097 17.7847 74.7821 19.096 74.7821 20.5349C74.7821 22.2287 75.178 23.4853 75.9607 24.3231C76.7524 25.1518 77.8681 25.5707 79.3165 25.5707C79.6224 25.5707 79.9463 25.5525 80.2702 25.5161C80.4411 25.4979 80.5941 25.6254 80.5941 25.7984V25.8075Z" fill="white"/>
<path d="M104.903 6.94807C105.056 6.94807 105.191 7.07556 105.191 7.23948V23.5218C105.191 24.1592 105.299 24.6601 105.524 25.0334C105.749 25.3977 106.172 25.5798 106.801 25.5798C106.99 25.5798 107.242 25.5525 107.557 25.4979C107.728 25.4706 107.89 25.598 107.89 25.7802V31.3715C107.89 31.4899 107.818 31.5992 107.71 31.6447C107.458 31.7358 107.107 31.8177 106.666 31.8815C106.1 31.9634 105.515 31.9999 104.912 31.9999C103.176 31.9999 101.808 31.6265 100.792 30.8707C99.7839 30.1239 99.0911 29.1222 98.7133 27.8747H98.5243C98.1735 29.1496 97.4987 30.1604 96.4911 30.8889C95.4834 31.6265 94.1519 31.9908 92.5145 31.9908C90.3372 31.9908 88.4119 31.4717 86.7385 30.4336C85.0651 29.3954 83.7785 27.9566 82.8788 26.1262C81.9791 24.2867 81.5293 22.174 81.5293 19.779C81.5293 17.384 82.0241 15.0892 83.0228 13.1951C84.0124 11.2918 85.353 9.83481 87.0174 8.81489C88.6908 7.79497 90.5171 7.28501 92.5055 7.28501C94.3318 7.28501 95.6903 7.66748 96.572 8.43242C97.4537 9.19736 98.1195 10.2082 98.5603 11.4466H98.7942V7.23037C98.7942 7.07556 98.9202 6.93896 99.0821 6.93896H104.903V6.94807ZM98.2364 23.9042V15.0437C97.7596 14.5975 97.1658 14.2514 96.4371 14.0147C95.7083 13.7779 94.9526 13.6595 94.1699 13.6595C92.4065 13.6595 91.012 14.1877 90.0043 15.244C88.9967 16.3004 88.4929 17.8029 88.4929 19.7517C88.4929 21.573 88.9877 23.0118 89.9863 24.0591C90.976 25.1154 92.3795 25.6436 94.1789 25.6436C95.9782 25.6436 97.2738 25.0699 98.2454 23.9225L98.2364 23.9042Z" fill="white"/>
<path d="M109.366 0H119.712C119.892 0 120.027 0.163916 119.991 0.336938L116.446 20.6898C116.419 20.8264 116.302 20.9266 116.167 20.9266H112.91C112.775 20.9266 112.658 20.8264 112.631 20.6898L109.087 0.336938C109.06 0.163916 109.186 0 109.366 0ZM111.129 31.0165C110.301 30.3608 109.887 29.4229 109.887 28.2026C109.887 26.9824 110.301 26.0444 111.129 25.4069C111.957 24.7695 113.099 24.4508 114.566 24.4508C116.032 24.4508 117.175 24.7695 118.021 25.4069C118.866 26.0444 119.289 26.9824 119.289 28.2026C119.289 29.4229 118.866 30.3608 118.021 31.0165C117.175 31.6722 116.023 32 114.566 32C113.108 32 111.957 31.6722 111.129 31.0165Z" fill="white"/>
</g>
<defs>
<clipPath id="clip0_218_455">
<rect width="120" height="32" fill="white"/>
</clipPath>
</defs>
</svg>
