<?xml version="1.0" encoding="UTF-8"?>
<svg id="Layer_2" data-name="Layer 2" xmlns="http://www.w3.org/2000/svg" viewBox="0 0 1280 194.75">
  <defs>
    <style>
      .cls-1 {
        fill: #fbfbfb;
        stroke-width: 0px;
      }
    </style>
  </defs>
  <g id="Layer_1-2" data-name="Layer 1">
    <g>
      <polygon class="cls-1" points="0 0 0 55.64 54.86 97.49 0 139.11 0 194.75 54.86 194.75 96.01 111.29 137.15 194.75 192.02 194.75 192.02 139.11 137.15 97.49 192.02 55.64 192.02 0 137.15 0 96.01 83.46 54.86 0 0 0"/>
      <g>
        <path class="cls-1" d="M269.92,45.15h73.43s0,15.97,0,15.97h-55.82v27.01h52.68s0,15.81,0,15.81h-52.68v29.55h57.31s0,16.11,0,16.11h-74.91s0-104.46,0-104.46Z"/>
        <path class="cls-1" d="M373.49,112.6l-21.94-37.61h19.85l17.16,30.74h3.88l17.31-30.74h19.99l-21.93,37.61,22.38,37.01h-20.15l-17.61-30.89h-3.88l-17.16,30.89h-20.15l22.24-37.01Z"/>
        <path class="cls-1" d="M440.28,56.34h17.31v18.65h19.26v15.37h-19.26v30.15c0,5.67,1.24,9.6,3.73,11.79,2.48,2.19,6.62,3.29,12.39,3.29,2.29,0,5.57-.4,9.85-1.2v14.92c-4.78,1.3-9.6,1.94-14.47,1.94-9.46,0-16.62-2.36-21.49-7.09-4.87-4.72-7.31-11.76-7.31-21.12V56.34Z"/>
        <path class="cls-1" d="M494.9,74.99h16.86c0,7.07-.1,12.59-.3,16.57h.45c1.59-5.37,4.45-9.75,8.58-13.13,4.13-3.38,8.78-5.07,13.95-5.07,2.78,0,5.23.25,7.31.75v16.86c-3.28-.6-6.51-.9-9.7-.9-5.97,0-10.75,1.64-14.33,4.93-3.58,3.28-5.37,7.91-5.37,13.88v40.74h-17.46v-74.62Z"/>
        <path class="cls-1" d="M557.79,141.62c-6.81-6.42-10.22-15.25-10.22-26.49v-5.38c0-11.34,3.33-20.24,10-26.71,6.66-6.47,15.77-9.7,27.31-9.7s20.09,3.03,26.56,9.1c6.47,6.07,9.7,14.33,9.7,24.77,0,3.88-.2,7.26-.6,10.15h-55.66v.75c0,5.57,1.84,10.05,5.52,13.43,3.68,3.39,8.85,5.08,15.52,5.08,5.08,0,9.27-1.07,12.61-3.21,3.33-2.14,5-5.4,5-9.78h17.16c0,5.67-1.52,10.6-4.55,14.77-3.04,4.18-7.19,7.37-12.46,9.55-5.27,2.19-11.14,3.29-17.61,3.29-12.04,0-21.47-3.21-28.28-9.63ZM603.98,105.13v-.75c0-5.17-1.7-9.23-5.08-12.16-3.38-2.93-8.11-4.4-14.18-4.4s-10.89,1.49-14.48,4.47c-3.58,2.99-5.37,7.02-5.37,12.09v.75h39.1Z"/>
        <path class="cls-1" d="M636.36,74.98h16.86c0,4.18-.1,9.26-.3,15.22h.45c1.99-5.57,5.15-9.78,9.48-12.61,4.33-2.84,9.57-4.25,15.74-4.25s11.66,1.52,15.89,4.55c4.23,3.04,6.74,7.19,7.54,12.46h.45c1.59-5.37,4.63-9.55,9.1-12.54,4.47-2.98,10.05-4.47,16.71-4.47,8.56,0,15.2,2.46,19.92,7.39,4.72,4.93,7.09,11.91,7.09,20.97v47.9h-17.61v-45.22c0-5.07-1.34-8.95-4.03-11.64-2.69-2.69-6.72-4.03-12.09-4.03s-9.68,1.54-12.61,4.63c-2.93,3.09-4.4,7.51-4.4,13.28v42.98h-17.61v-45.66c0-4.87-1.27-8.63-3.8-11.27-2.54-2.63-6.44-3.95-11.72-3.95s-9.4,1.72-12.69,5.16c-3.28,3.43-4.92,8.03-4.92,13.8v41.94h-17.46v-74.62Z"/>
        <path class="cls-1" d="M779.1,141.61c-6.81-6.41-10.22-15.24-10.22-26.48v-5.38c0-11.34,3.33-20.24,10-26.71,6.66-6.47,15.77-9.71,27.31-9.71s20.09,3.03,26.56,9.1c6.47,6.07,9.7,14.33,9.7,24.77,0,3.88-.2,7.26-.6,10.15h-55.66v.75c0,5.57,1.84,10.05,5.52,13.43,3.68,3.39,8.85,5.08,15.52,5.08,5.08,0,9.27-1.07,12.61-3.21,3.33-2.14,5-5.4,5-9.78h17.16c0,5.67-1.52,10.6-4.55,14.77-3.04,4.18-7.19,7.37-12.46,9.55-5.27,2.19-11.14,3.29-17.61,3.29-12.04,0-21.47-3.21-28.28-9.63ZM825.29,105.12v-.75c0-5.17-1.7-9.23-5.08-12.16-3.38-2.93-8.11-4.4-14.18-4.4s-10.89,1.49-14.48,4.47c-3.58,2.99-5.37,7.02-5.37,12.09v.75h39.1Z"/>
        <path class="cls-1" d="M894.01,138.92c-8.41-7.91-12.61-18.97-12.61-33.2v-16.71c0-14.13,4.25-25.17,12.76-33.14,8.5-7.95,20.32-11.94,35.44-11.94,13.63,0,24.45,2.98,32.46,8.95,8.01,5.97,12.02,14.58,12.02,25.82h-9.41c0-8.46-3.18-14.92-9.55-19.4-6.37-4.47-14.87-6.71-25.52-6.71-12.44,0-22.01,3.11-28.73,9.33-6.71,6.22-10.07,15.11-10.07,26.64v17.46c0,11.54,3.36,20.44,10.07,26.71,6.71,6.27,16.24,9.4,28.58,9.4,11.14,0,19.87-2.54,26.19-7.61,6.32-5.07,9.48-12.03,9.48-20.89v-10.3h-38.5v-8.36h47.9v18.66c0,7.56-1.84,14.13-5.52,19.7-3.68,5.57-8.9,9.87-15.67,12.91-6.77,3.03-14.73,4.55-23.88,4.55-15.22,0-27.04-3.95-35.44-11.86Z"/>
        <path class="cls-1" d="M994.37,74.97h8.95c0,6.77-.05,12.19-.15,16.27h.3c1.59-5.08,4.45-9.26,8.58-12.54,4.13-3.28,8.93-4.93,14.4-4.93,2.49,0,5.08.3,7.76.9v8.95c-2.69-.69-5.62-1.05-8.8-1.05-6.57,0-11.89,2.26-15.97,6.79-4.08,4.53-6.12,10.12-6.12,16.79v43.42h-8.95v-74.62Z"/>
        <path class="cls-1" d="M1050.11,141.9c-5.92-5.92-8.88-14.2-8.88-24.84v-9.55c0-10.64,2.96-18.93,8.88-24.85,5.92-5.92,14.3-8.88,25.15-8.88s19.22,2.96,25.14,8.88c5.92,5.92,8.88,14.2,8.88,24.85v9.55c0,10.64-2.99,18.93-8.95,24.84-5.97,5.92-14.33,8.88-25.07,8.88s-19.23-2.96-25.15-8.88ZM1056.61,135.93c4.28,4.33,10.49,6.49,18.66,6.49s14.37-2.16,18.65-6.49c4.28-4.33,6.42-10.62,6.42-18.88v-9.55c0-8.26-2.14-14.55-6.42-18.88-4.28-4.32-10.49-6.49-18.65-6.49s-14.38,2.16-18.66,6.49c-4.28,4.33-6.42,10.62-6.42,18.88v9.55c0,8.26,2.14,14.55,6.42,18.88Z"/>
        <path class="cls-1" d="M1134.28,143.16c-4.93-5.07-7.39-12.03-7.39-20.89v-47.31h8.95v46.12c0,6.96,1.82,12.36,5.45,16.19,3.63,3.83,8.83,5.75,15.59,5.75,4.68,0,8.88-1.02,12.61-3.06,3.73-2.04,6.66-4.82,8.8-8.36,2.14-3.53,3.21-7.43,3.21-11.71v-44.92h8.95v74.62h-8.95l.3-15.52h-.45c-1.89,5.17-5.23,9.25-10,12.24-4.78,2.98-10.35,4.47-16.71,4.47-8.66,0-15.45-2.54-20.37-7.61Z"/>
        <path class="cls-1" d="M1211.8,74.96h8.95c0,6.27-.05,11.64-.15,16.12h.3c1.79-5.47,5.17-9.72,10.15-12.76,4.97-3.03,10.84-4.55,17.61-4.55,9.95,0,17.66,2.93,23.13,8.8,5.47,5.87,8.21,14.23,8.21,25.07v8.66c0,10.84-2.76,19.3-8.28,25.37-5.52,6.07-13.26,9.1-23.21,9.1-6.86,0-12.73-1.49-17.61-4.47-4.87-2.99-8.21-7.17-10-12.54h-.3c.1,3.68.15,9.31.15,16.86v28.8s-8.95,0-8.95,0v-104.46ZM1227.47,135.92c4.48,4.43,10.64,6.64,18.51,6.63,8.16,0,14.38-2.21,18.66-6.64,4.28-4.43,6.41-10.87,6.41-19.33v-8.65c0-8.46-2.14-14.9-6.41-19.33-4.28-4.42-10.5-6.64-18.66-6.64-7.76,0-13.9,2.24-18.43,6.72-4.53,4.48-6.79,10.89-6.79,19.25v8.65c0,8.46,2.24,14.9,6.71,19.33Z"/>
      </g>
    </g>
  </g>
</svg>